<?xml version="1.0" encoding="UTF-8" standalone="no"?>
<!DOCTYPE svg PUBLIC "-//W3C//DTD SVG 1.1//EN" "http://www.w3.org/Graphics/SVG/1.1/DTD/svg11.dtd">
<svg version="1.1" xmlns="http://www.w3.org/2000/svg" xmlns:xlink="http://www.w3.org/1999/xlink" preserveAspectRatio="xMidYMid meet" viewBox="0 0 1280 720" width="1280" height="720"><defs><path d="M1280 645.49C1265.84 615.58 1250.37 584.97 1233.59 553.67C1221.8 531.67 1209.2 509.13 1195.79 486.02C1184.85 467.18 1172.08 449.46 1157.66 433.12C1155.73 430.94 1161.99 438.03 1157.66 433.12C1151.31 425.92 1143.58 420.07 1134.93 415.92C1127.12 412.17 1137.55 417.18 1134.93 415.92C1109.61 403.77 1080.97 400.37 1053.51 406.25C1044.45 408.19 1061.98 404.43 1053.51 406.25C1023.58 412.66 995.07 424.51 969.41 441.19C960.48 446.99 977.17 436.14 969.41 441.19C939.84 460.41 907.35 474.7 873.21 483.52C863.91 485.92 881.1 481.48 870.18 484.3C842.06 491.56 812.29 488.84 785.96 476.59C777.83 472.81 789.26 478.13 779.91 473.78C757.75 463.47 740.58 444.81 732.14 421.87C729.71 415.26 734.78 429.04 732.14 421.87C724.31 400.56 724.43 377.14 732.49 355.91C736.01 346.63 731.27 359.13 734.09 351.71C744.62 323.97 761.44 299.06 783.24 278.93C789.92 272.75 782.14 279.94 790.16 272.54C807.73 256.31 822.79 237.55 834.84 216.89C844.75 199.89 831.2 223.12 834.84 216.89C863.58 167.59 853.24 104.82 810.19 67.36C799.87 58.38 774.07 35.92 732.79 0L1280 0" id="dtetHz5VD"></path><linearGradient id="gradientbRNndvra9" gradientUnits="userSpaceOnUse" x1="1003.18" y1="0" x2="1003.18" y2="645.49"><stop style="stop-color: #cc208e;stop-opacity: 1" offset="0%"></stop><stop style="stop-color: #6713d2;stop-opacity: 1" offset="100%"></stop></linearGradient><path d="M654.43 232.27C626.03 257.12 589.58 270.81 551.85 270.81C542.15 270.81 563.56 270.81 551.85 270.81C520.85 270.81 491.19 258.15 469.75 235.75C462.9 228.59 476.47 242.77 469.75 235.75C448.3 213.34 439.29 181.78 445.68 151.42C447.25 143.93 443.63 161.12 445.68 151.42C450.77 127.22 464.12 105.54 483.43 90.09C491.02 84.02 477.45 94.87 483.43 90.09C507.88 70.53 538.72 60.74 569.97 62.6C580.47 63.23 561.44 62.09 571.45 62.69C604.51 64.67 635.98 77.55 660.94 99.32C667.41 104.97 653.24 92.6 660.94 99.32C681.16 116.96 691.2 143.55 687.69 170.16C686.7 177.62 688.81 161.64 687.69 170.16C684.51 194.21 672.69 216.29 654.43 232.27C645.62 239.98 660.09 227.31 654.43 232.27Z" id="c1FScKAYw8"></path><linearGradient id="gradientb6NMX8Glbd" gradientUnits="userSpaceOnUse" x1="566.02" y1="62.38" x2="566.02" y2="270.81"><stop style="stop-color: #cc208e;stop-opacity: 1" offset="0%"></stop><stop style="stop-color: #6713d2;stop-opacity: 1" offset="100%"></stop></linearGradient></defs><g><g><g><use xlink:href="#dtetHz5VD" opacity="1" fill="url(#gradientbRNndvra9)"></use><g><use xlink:href="#dtetHz5VD" opacity="1" fill-opacity="0" stroke="#000000" stroke-width="0" stroke-opacity="1"></use></g></g><g><use xlink:href="#c1FScKAYw8" opacity="1" fill="url(#gradientb6NMX8Glbd)"></use><g><use xlink:href="#c1FScKAYw8" opacity="1" fill-opacity="0" stroke="#000000" stroke-width="0" stroke-opacity="1"></use></g></g></g></g></svg>